<?xml version="1.0" standalone="no"?>
<!DOCTYPE svg PUBLIC "-//W3C//DTD SVG 20010904//EN"
 "http://www.w3.org/TR/2001/REC-SVG-20010904/DTD/svg10.dtd">
<svg version="1.0" xmlns="http://www.w3.org/2000/svg"
 width="2541.000000pt" height="2541.000000pt" viewBox="0 0 2541.000000 2541.000000"
 preserveAspectRatio="xMidYMid meet">
<metadata>
Created by potrace 1.11, written by Peter Selinger 2001-2013
</metadata>
<g transform="translate(0.000000,2541.000000) scale(0.100000,-0.100000)"
fill="#000000" stroke="none">
<path d="M12869 24893 c0 -10 -2 -27 -4 -38 -2 -11 -7 -47 -10 -80 -10 -102
-16 -159 -20 -195 -2 -19 -7 -60 -10 -90 -3 -30 -7 -71 -10 -90 -5 -39 -11
-94 -20 -185 -6 -62 -15 -142 -20 -185 -2 -14 -6 -58 -10 -98 -3 -41 -8 -81
-10 -90 -1 -9 -6 -51 -10 -92 -10 -101 -12 -115 -20 -190 -11 -96 -12 -108
-20 -188 -3 -41 -8 -82 -10 -92 -2 -10 -6 -51 -10 -92 -3 -40 -8 -84 -10 -98
-2 -14 -7 -54 -11 -90 -3 -36 -8 -78 -9 -95 -2 -16 -6 -59 -9 -95 -3 -36 -8
-76 -11 -90 -2 -14 -7 -52 -10 -85 -3 -33 -8 -84 -11 -112 -5 -47 -4 -53 13
-54 10 0 25 -2 33 -4 8 -1 44 -5 80 -8 102 -10 174 -18 187 -22 21 -7 28 20
38 135 3 36 7 76 10 90 2 14 7 54 10 90 4 36 8 76 10 90 2 14 7 59 10 100 4
41 9 82 10 91 2 8 6 53 10 100 4 46 9 93 11 104 2 10 6 49 10 85 3 36 7 76 9
90 2 14 6 56 10 94 l8 68 66 -6 c36 -3 80 -8 96 -10 17 -2 64 -7 105 -11 41
-3 86 -8 100 -10 28 -4 97 -12 180 -20 85 -9 142 -15 180 -20 19 -2 64 -7 100
-10 63 -6 89 -9 175 -19 22 -3 69 -8 105 -12 36 -4 76 -8 90 -9 14 -2 28 -3
32 -4 4 -1 5 -9 3 -19 -2 -10 -6 -49 -9 -87 -4 -39 -9 -88 -12 -110 -9 -75
-13 -110 -19 -175 -3 -36 -10 -101 -15 -145 -9 -77 -17 -151 -24 -225 -2 -19
-6 -57 -10 -85 -7 -52 -12 -102 -22 -222 -6 -66 -4 -73 12 -74 11 0 28 -2 39
-3 49 -7 125 -16 190 -21 38 -4 73 -9 77 -11 11 -7 22 50 34 171 3 33 7 74 9
90 1 17 6 59 9 95 4 36 9 76 11 90 2 14 7 59 11 100 3 41 8 89 10 105 2 17 6
55 9 85 3 30 8 71 10 90 2 19 7 60 10 90 3 30 8 71 10 90 2 19 7 64 10 100 3
36 8 76 10 90 4 23 12 100 20 189 2 20 6 59 9 86 3 28 9 73 12 100 3 28 7 66
9 85 5 39 12 113 20 190 5 54 13 127 19 175 2 17 7 64 11 105 3 41 8 86 10
100 2 14 6 54 10 90 4 36 8 77 11 92 3 19 -1 28 -13 32 -33 9 -209 28 -282 30
-49 1 -45 9 -56 -107 -3 -39 -8 -79 -10 -87 -3 -14 -7 -44 -21 -195 -2 -27 -6
-66 -9 -85 -3 -19 -7 -60 -10 -90 -5 -52 -11 -109 -20 -190 -2 -19 -7 -62 -10
-95 -9 -93 -16 -135 -23 -135 -8 0 -176 18 -237 25 -64 7 -123 13 -235 25 -58
6 -118 13 -135 15 -16 2 -57 7 -90 10 -70 7 -133 13 -192 20 -61 7 -126 14
-175 19 -24 3 -69 8 -102 12 l-58 7 6 66 c8 86 15 157 21 201 2 19 9 82 15
140 6 58 13 121 15 140 3 19 7 67 10 105 3 39 8 77 10 85 5 21 18 157 19 210
l1 45 -65 7 c-36 4 -90 10 -120 13 -30 3 -76 8 -102 11 -42 5 -48 3 -49 -13z"/>
<path d="M10935 24608 c-466 -154 -1164 -384 -1332 -439 -95 -31 -133 -48
-133 -59 0 -25 80 -264 91 -271 5 -3 177 50 381 117 205 68 373 122 375 120 4
-3 44 -126 393 -1186 268 -815 274 -833 289 -838 12 -4 291 86 305 98 7 7 -97
329 -548 1695 l-113 340 46 17 c25 9 192 65 371 123 179 59 329 111 334 115
10 10 -73 278 -89 283 -5 2 -172 -49 -370 -115z"/>
<path d="M8332 23494 c-163 -34 -246 -80 -807 -444 -46 -30 -180 -117 -297
-193 -117 -76 -223 -146 -236 -155 l-23 -18 63 -94 c34 -52 127 -196 207 -320
81 -124 182 -280 226 -348 44 -67 117 -180 163 -250 45 -70 87 -134 92 -142 6
-8 38 -58 72 -110 33 -52 89 -138 123 -190 34 -52 92 -142 130 -200 37 -58 94
-145 127 -193 32 -48 58 -90 58 -92 0 -11 73 -106 80 -103 3 2 66 41 138 88
81 52 130 90 127 98 -5 13 -17 32 -212 330 -62 95 -113 177 -113 182 0 6 -4
10 -8 10 -5 0 -15 12 -23 28 -8 15 -18 32 -22 37 -16 21 -189 289 -194 301 -3
9 228 166 389 263 84 50 205 67 318 44 118 -23 357 -119 750 -301 36 -16 88
-40 115 -52 28 -12 76 -35 109 -51 32 -16 64 -29 72 -29 21 0 339 208 339 222
0 6 -121 67 -270 134 -148 68 -301 138 -340 155 -281 129 -464 180 -625 174
l-75 -2 67 69 c164 167 234 325 230 517 -7 327 -300 633 -620 645 -37 1 -95
-3 -130 -10z m203 -358 c134 -62 227 -229 211 -381 -17 -165 -118 -271 -491
-511 -71 -46 -137 -89 -145 -94 -58 -40 -275 -178 -276 -177 -20 24 -417 646
-418 654 -1 7 89 71 199 142 110 72 207 135 215 141 245 168 387 242 487 256
26 3 49 7 51 9 8 7 125 -20 167 -39z"/>
<path d="M18084 22959 c-87 -22 -134 -42 -200 -85 -189 -120 -287 -325 -261
-549 17 -155 71 -286 235 -575 200 -351 254 -471 265 -585 8 -90 -38 -203
-110 -265 -171 -150 -436 -100 -666 126 -144 141 -234 295 -267 453 -33 161
-9 265 98 424 30 45 42 71 34 76 -6 3 -43 36 -83 71 -135 121 -131 119 -149
108 -25 -16 -118 -145 -150 -208 -83 -166 -106 -351 -65 -535 44 -193 186
-418 387 -611 200 -192 409 -287 633 -287 133 0 208 17 325 75 154 78 282 232
325 394 15 54 21 193 11 254 -25 158 -82 287 -279 631 -191 333 -235 440 -224
544 11 103 73 186 175 233 46 21 72 26 132 25 134 -1 250 -63 400 -213 94 -94
146 -166 193 -268 28 -61 31 -76 31 -167 0 -128 -24 -192 -119 -322 -8 -11 4
-27 45 -65 30 -29 82 -77 114 -107 l59 -56 42 48 c60 68 111 160 142 252 35
107 40 267 12 376 -34 130 -138 322 -233 429 -186 210 -378 336 -591 387 -56
13 -196 9 -261 -8z"/>
<path d="M12817 21904 c-1 -1 -78 -4 -172 -8 -181 -7 -204 -9 -415 -32 -185
-21 -479 -71 -640 -109 -506 -120 -926 -272 -1377 -498 -441 -221 -892 -515
-1280 -833 -124 -102 -152 -127 -303 -262 -161 -146 -457 -447 -605 -617 -33
-38 -76 -87 -96 -110 -70 -78 -295 -364 -399 -506 -589 -810 -1056 -1732
-1383 -2734 -110 -340 -175 -571 -272 -980 -17 -71 -101 -492 -110 -550 -3
-22 -14 -92 -25 -155 -10 -63 -22 -137 -25 -165 -4 -27 -10 -77 -15 -110 -8
-53 -20 -144 -35 -272 -2 -21 -9 -90 -15 -153 -6 -63 -13 -131 -15 -150 -2
-19 -6 -82 -10 -140 -3 -58 -8 -123 -10 -145 -24 -226 -24 -1125 0 -1420 2
-27 7 -88 10 -135 8 -104 12 -156 20 -240 3 -36 8 -87 11 -115 2 -27 6 -66 9
-85 2 -19 7 -60 10 -90 5 -47 44 -332 61 -440 176 -1161 577 -2366 1122 -3375
101 -188 108 -200 219 -385 713 -1187 1624 -2123 2698 -2773 236 -143 556
-306 811 -411 49 -21 109 -46 134 -56 275 -115 738 -250 1080 -314 399 -75
676 -101 1090 -101 229 0 424 7 550 20 543 56 978 154 1475 331 55 20 114 42
130 49 17 8 62 26 100 41 164 63 442 195 675 322 405 218 955 611 1305 931
305 280 604 592 815 851 25 30 47 57 50 60 4 3 53 66 111 140 939 1209 1597
2701 1905 4320 17 88 17 92 34 188 16 97 36 222 45 287 3 22 8 58 11 80 4 22
8 49 9 60 2 11 6 47 10 80 4 32 8 66 10 75 2 8 6 49 10 90 4 41 8 82 10 90 2
8 6 53 10 100 4 47 9 96 10 110 2 14 6 75 10 135 3 61 8 121 10 135 19 132 26
1015 11 1280 -15 270 -25 417 -31 470 -2 19 -7 64 -10 100 -6 66 -31 292 -41
365 -10 79 -35 260 -39 284 -2 13 -7 45 -11 70 -4 25 -8 55 -10 66 -2 11 -7
34 -9 50 -5 28 -41 229 -52 285 -16 92 -82 384 -120 535 -62 248 -104 399
-176 630 -14 44 -35 112 -47 150 -11 39 -25 79 -30 90 -5 11 -16 40 -24 65
-25 77 -142 389 -190 506 -264 648 -614 1305 -981 1837 -56 81 -258 361 -265
367 -3 3 -37 46 -75 95 -241 312 -657 759 -935 1006 -52 46 -101 90 -109 97
-7 7 -52 46 -100 85 -47 40 -88 74 -91 77 -3 3 -25 21 -50 40 -25 19 -47 37
-50 40 -5 5 -150 114 -250 187 -142 104 -595 393 -616 393 -2 0 -23 12 -46 26
-43 27 -451 234 -462 234 -3 0 -34 13 -68 29 -545 248 -1235 431 -1833 486
-33 3 -80 8 -105 10 -25 3 -133 7 -240 11 -107 3 -221 6 -253 7 -32 1 -59 2
-60 1z m493 -817 c14 -3 54 -8 90 -11 63 -6 167 -18 260 -31 36 -5 303 -56
370 -70 83 -18 180 -43 306 -80 717 -211 1392 -572 2019 -1079 55 -45 102 -84
105 -87 3 -3 37 -33 76 -67 246 -210 532 -506 811 -837 267 -319 603 -813 826
-1215 97 -175 317 -609 317 -624 0 -2 17 -42 39 -88 184 -397 423 -1077 535
-1524 43 -169 69 -276 82 -339 36 -162 44 -201 48 -220 15 -77 46 -246 51
-275 3 -19 10 -57 15 -85 5 -27 21 -131 35 -230 26 -181 29 -204 40 -305 3
-30 8 -71 10 -90 2 -19 7 -64 10 -100 3 -36 8 -81 10 -100 2 -19 7 -82 11
-140 3 -58 8 -112 9 -121 8 -41 19 -449 19 -694 1 -248 -10 -628 -18 -700 -2
-16 -7 -82 -11 -145 -4 -63 -8 -122 -10 -130 -2 -8 -6 -53 -10 -100 -3 -47 -8
-92 -10 -100 -2 -8 -7 -42 -10 -75 -13 -137 -68 -522 -90 -635 -3 -14 -10 -52
-15 -85 -6 -33 -22 -112 -35 -175 -13 -63 -27 -131 -30 -149 -3 -19 -26 -118
-51 -220 -140 -575 -298 -1055 -516 -1566 -308 -722 -694 -1381 -1147 -1955
-80 -101 -215 -265 -240 -291 -9 -9 -47 -52 -85 -95 -130 -147 -456 -468 -622
-610 -225 -194 -554 -438 -769 -571 -21 -13 -207 -124 -260 -155 -97 -58 -515
-256 -655 -311 -323 -127 -677 -232 -960 -283 -139 -25 -192 -34 -235 -39 -27
-4 -61 -8 -75 -10 -14 -2 -52 -7 -85 -10 -33 -4 -73 -9 -90 -11 -204 -24 -783
-24 -960 1 -16 2 -73 9 -125 15 -185 22 -458 71 -580 104 -8 2 -37 9 -65 16
-279 63 -685 213 -1025 377 -256 125 -447 235 -715 413 -217 144 -500 365
-715 558 -126 114 -403 392 -510 512 -51 58 -107 121 -125 140 -17 19 -80 95
-140 169 -384 477 -731 1023 -997 1571 -49 102 -94 193 -99 203 -20 38 -149
338 -204 477 -280 710 -495 1508 -599 2230 -2 19 -8 58 -12 85 -3 28 -8 57 -9
65 -2 8 -6 40 -10 70 -3 30 -8 66 -10 80 -2 14 -7 54 -10 90 -3 36 -8 76 -10
90 -2 14 -7 59 -10 100 -4 41 -8 91 -10 110 -2 19 -6 80 -10 135 -3 55 -8 118
-10 140 -23 230 -22 1042 0 1330 2 22 6 86 10 143 3 57 8 118 10 135 2 18 6
61 10 97 9 102 22 215 39 355 8 60 27 192 30 211 2 10 7 44 11 74 4 30 9 64
11 75 2 11 7 34 9 50 267 1538 828 2902 1658 4025 86 115 289 375 306 390 4 3
31 34 61 70 30 36 64 74 75 86 11 12 42 46 69 75 68 76 237 248 342 349 987
948 2205 1520 3444 1616 47 3 87 8 89 10 6 5 694 -3 721 -9z"/>
<path d="M14016 18981 c-1 -3 -3 -41 -4 -83 -1 -70 0 -78 17 -78 21 0 21 9 6
-155 -4 -44 -9 -87 -10 -95 -2 -8 -6 -55 -10 -105 -4 -49 -8 -101 -11 -115 -2
-14 -6 -55 -9 -90 -3 -36 -8 -86 -10 -112 -8 -77 -14 -139 -20 -203 -3 -33 -7
-78 -9 -100 -2 -22 -7 -71 -11 -110 -3 -38 -8 -88 -10 -110 -7 -54 -14 -127
-20 -200 -3 -33 -7 -80 -10 -105 -2 -25 -7 -74 -10 -110 -3 -36 -8 -81 -10
-100 -2 -19 -7 -64 -10 -100 -4 -36 -8 -78 -10 -95 -3 -29 -11 -115 -20 -225
-5 -61 -14 -149 -20 -195 -2 -16 -6 -66 -10 -110 -3 -44 -8 -95 -11 -113 -2
-18 -6 -60 -9 -95 -3 -34 -7 -82 -10 -107 -3 -25 -8 -70 -10 -100 -3 -30 -7
-76 -10 -102 -6 -56 -9 -93 -30 -318 -6 -71 -16 -169 -20 -200 -2 -19 -7 -66
-10 -105 -3 -38 -8 -88 -10 -110 -2 -22 -7 -69 -10 -105 -3 -36 -8 -81 -10
-100 -2 -19 -7 -62 -10 -95 -3 -33 -7 -80 -10 -105 -2 -25 -7 -72 -10 -105 -2
-33 -7 -85 -10 -115 l-6 -56 -877 1 -876 0 1 460 c1 253 2 466 2 473 1 10 31
13 129 12 70 -1 135 -1 145 -1 15 1 17 12 17 84 l0 83 -145 -1 c-80 0 -146 3
-146 8 -1 4 -2 13 -3 20 -1 9 -176 12 -837 14 l-835 1 -10 -21 c-9 -21 -15
-22 -181 -22 l-173 1 0 -83 0 -83 78 -1 c42 0 122 -1 177 -2 l100 -2 0 -470 0
-470 -297 0 -297 -1 0 538 0 537 72 3 72 3 0 135 0 135 -240 5 -240 5 -90 63
c-78 55 -640 447 -880 613 -44 31 -171 120 -283 197 -112 78 -208 142 -215
142 -7 0 -20 -11 -29 -25 -20 -27 -20 -27 47 -80 49 -38 204 -162 230 -183 11
-10 40 -33 65 -52 96 -74 1036 -823 1049 -836 9 -8 15 -34 15 -66 l1 -53 102
-3 102 -3 -1 -537 0 -538 -206 1 -207 0 -3 -138 -3 -137 273 0 273 0 0 -575
c0 -376 -3 -575 -10 -576 -5 0 -34 -1 -62 -1 l-53 0 0 -169 0 -169 325 0 325
0 0 -138 0 -137 -152 0 -153 0 -3 -128 -3 -127 156 0 155 0 0 -915 0 -914 -36
-7 c-54 -10 -172 1 -234 22 -30 10 -134 58 -230 108 -337 172 -470 194 -699
114 -47 -16 -158 -67 -246 -113 -196 -102 -279 -131 -379 -134 -110 -3 -173
16 -386 117 -283 133 -403 168 -594 171 l-94 2 -1 -121 -2 -120 68 -1 c37 -1
72 -1 77 0 20 4 172 -31 230 -53 33 -13 106 -45 161 -71 181 -86 297 -132 376
-151 13 -4 67 -8 120 -11 149 -8 277 25 446 114 223 117 290 147 370 163 134
29 174 17 508 -152 193 -98 280 -124 422 -127 149 -3 223 18 498 145 l164 75
83 -2 82 -2 8 30 c10 37 28 42 137 38 121 -4 215 -34 431 -137 253 -120 360
-151 510 -147 137 4 211 27 427 134 317 157 318 157 524 161 224 4 240 -1 559
-160 235 -117 321 -141 479 -133 95 5 194 26 266 56 59 26 99 44 190 88 l100
48 140 2 c77 1 150 2 163 2 19 1 22 6 22 47 l0 46 63 -6 c111 -10 126 -15 125
-45 0 -14 0 -30 1 -36 0 -6 36 -9 89 -7 86 3 91 2 183 -41 168 -79 204 -94
254 -111 182 -62 349 -60 525 5 30 11 105 46 165 76 282 144 333 164 422 163
63 0 77 -3 143 -24 47 -16 337 -155 365 -176 24 -17 153 -62 218 -76 88 -19
227 -16 316 7 76 19 195 67 328 132 130 64 245 106 330 123 41 7 77 13 81 13
4 -1 40 -1 80 0 l73 1 -2 120 -2 121 -96 -2 c-197 -5 -320 -41 -606 -179 -223
-107 -338 -130 -483 -93 -38 9 -141 54 -239 105 -209 107 -273 133 -383 156
-175 37 -293 8 -592 -146 -98 -50 -179 -88 -179 -84 -1 4 -2 409 -3 900 l-2
892 146 0 145 0 -1 123 c-1 67 -2 124 -3 127 0 3 -64 5 -141 5 -77 0 -141 2
-141 5 -1 3 -2 65 -3 138 l-2 132 188 0 188 0 1 33 c1 32 0 214 -1 273 l0 31
-145 -1 -145 -1 -1 35 c0 36 0 371 1 448 l0 42 220 0 220 0 0 820 0 820 -220
0 c-169 0 -220 -3 -221 -12 0 -7 -1 -173 -1 -368 l-1 -356 -441 1 -441 0 -6
65 c-4 36 -10 100 -14 143 -3 43 -8 88 -10 100 -2 12 -6 58 -10 102 -3 44 -8
94 -10 110 -4 27 -9 79 -20 210 -9 101 -24 252 -30 305 -2 19 -7 69 -10 110
-3 41 -8 86 -10 100 -2 14 -7 63 -11 110 -3 47 -8 94 -10 104 -2 11 -6 60 -10
110 -3 50 -7 93 -9 96 -2 3 -6 46 -10 95 -4 50 -8 101 -10 114 -9 55 -19 191
-20 256 0 39 -3 72 -6 75 -4 3 -10 37 -14 75 -3 39 -8 88 -10 110 -2 22 -7 67
-10 100 -3 33 -8 85 -10 115 -6 67 -15 156 -20 190 -11 77 -20 216 -18 295 1
51 -3 92 -9 96 -5 3 -11 26 -14 50 -2 24 -8 89 -14 144 -6 55 -13 125 -15 155
-3 30 -8 71 -10 90 -2 19 -7 67 -10 105 -5 69 -11 127 -20 217 -3 26 -7 73
-10 105 -3 32 -7 76 -10 98 -2 22 -7 74 -11 115 -3 41 -7 79 -8 84 0 6 12 12
28 15 l29 6 -1 75 c0 41 -1 78 -1 81 -1 8 -681 8 -685 0z m505 -190 c0 -14 4
-59 8 -98 4 -40 5 -73 2 -73 -4 0 -43 21 -198 107 -24 12 -64 35 -90 49 -27
14 -52 29 -56 34 -5 4 68 7 162 7 l171 1 1 -27z m-269 -107 c34 -20 92 -52
128 -71 36 -19 69 -38 73 -43 5 -4 -61 -7 -146 -7 l-155 1 5 45 c2 25 5 61 5
79 1 18 7 32 14 32 7 0 41 -16 76 -36z m188 -198 c0 -3 -17 -15 -37 -27 -36
-21 -75 -46 -195 -122 -29 -19 -59 -37 -67 -42 -12 -7 -13 7 -6 86 4 52 9 97
11 101 4 6 294 10 294 4z m114 -61 c3 -17 8 -64 12 -105 l6 -75 -181 0 c-99 0
-177 3 -173 7 11 10 327 206 329 204 1 -1 4 -15 7 -31z m31 -290 c5 -55 7
-100 6 -117 -1 -14 -31 -2 -158 63 -87 45 -160 83 -162 85 -3 3 66 3 153 2
l159 -3 2 -30z m-285 -173 c-106 -1 -195 0 -198 3 -5 5 -4 47 2 95 2 14 4 42
5 63 l1 38 191 -98 191 -98 -192 -3z m180 -81 c0 -3 -93 -52 -206 -108 l-207
-103 7 78 c3 42 8 86 10 97 3 11 5 25 5 31 1 12 391 16 391 5z m131 -43 c1 -7
3 -22 4 -34 1 -12 5 -53 9 -93 l7 -71 -222 0 c-122 0 -220 2 -218 4 8 7 404
205 412 206 4 0 8 -6 8 -12z m30 -297 c0 -14 2 -33 3 -41 2 -8 6 -47 9 -87 6
-66 5 -72 -11 -66 -24 9 -411 186 -447 205 -27 15 -13 16 208 15 l237 -1 1
-25z m-376 -107 c83 -38 170 -78 195 -91 l45 -22 -238 0 -237 -1 5 38 c7 45
13 107 14 145 1 32 -16 38 216 -69z m194 -207 c-24 -10 -53 -23 -64 -27 -11
-5 -47 -21 -80 -36 -33 -15 -89 -39 -125 -54 -36 -15 -90 -39 -121 -53 -31
-14 -59 -24 -61 -22 -3 3 17 208 21 211 0 0 107 1 238 1 l236 0 -44 -20z m212
-4 c1 -11 6 -57 14 -145 l8 -78 -279 1 c-215 0 -273 3 -254 12 165 74 495 216
503 216 4 1 7 -2 8 -6z m30 -317 c1 -12 3 -30 4 -41 1 -11 5 -50 9 -87 l6 -67
-67 25 c-38 14 -102 38 -143 54 -41 16 -138 52 -215 81 -77 29 -141 53 -143
54 -1 1 121 2 273 2 271 0 275 -1 276 -21z m-544 -65 c87 -33 169 -64 183 -69
14 -6 69 -27 123 -47 53 -21 97 -39 97 -41 0 -2 -133 -4 -295 -4 l-295 0 6 63
c4 34 8 73 9 87 2 14 3 35 4 48 1 12 3 22 5 22 2 0 76 -27 163 -59z m358 -240
c-3 -3 -61 -24 -128 -47 -67 -23 -194 -67 -282 -98 -87 -31 -161 -56 -163 -56
-2 0 -1 8 2 18 3 9 8 53 11 96 3 44 8 83 10 86 2 4 128 7 280 7 151 0 273 -3
270 -6z m219 -38 c3 -16 8 -67 12 -115 l6 -88 -336 0 c-185 0 -336 2 -336 4 0
2 35 15 78 29 73 25 305 106 477 167 44 16 83 29 87 29 3 1 9 -11 12 -26z
m-420 -402 c181 -61 331 -113 334 -116 3 -3 -162 -5 -367 -5 l-373 0 7 63 c10
84 13 116 14 154 1 30 3 31 29 23 15 -4 175 -58 356 -119z m447 120 c1 -3 2
-24 4 -46 2 -22 6 -64 9 -92 3 -29 2 -53 -2 -53 -4 0 -95 30 -202 66 -107 36
-199 67 -205 69 -5 1 -17 5 -25 8 -8 3 -45 16 -82 28 -38 12 -68 23 -68 24 0
5 570 1 571 -4z m-251 -321 c0 -4 -17 -12 -37 -18 -21 -6 -163 -55 -317 -110
l-278 -100 6 52 c3 28 8 81 12 117 l6 65 304 1 c167 0 304 -3 304 -7z m281 -2
c0 -7 2 -20 3 -28 2 -8 7 -51 11 -95 4 -44 8 -82 10 -85 2 -3 0 -11 -4 -18 -6
-9 -93 -12 -367 -10 l-359 3 345 122 c190 67 348 122 353 123 4 0 7 -6 8 -12z
m30 -312 c0 -1 6 -51 12 -111 l12 -111 -255 74 c-140 40 -286 82 -325 92 -38
11 -99 28 -135 38 l-65 19 378 0 c207 0 377 0 378 -1z m-568 -132 c204 -59
374 -108 376 -110 2 -2 -172 -4 -388 -4 l-392 0 7 83 c4 45 8 89 10 97 1 8 3
21 3 28 1 6 3 12 6 12 3 0 173 -48 378 -106z m327 -194 c0 -4 -35 -17 -77 -28
-63 -16 -600 -168 -666 -188 -16 -5 -17 1 -11 73 4 43 8 85 10 93 1 8 3 25 3
36 l1 21 370 1 c204 0 370 -4 370 -8z m274 -18 c2 -4 7 -48 11 -97 4 -50 9
-98 11 -107 3 -17 -22 -18 -408 -18 -226 0 -409 2 -406 5 3 3 52 19 109 35
179 49 562 159 609 174 54 17 67 18 74 8z m30 -301 c2 -3 7 -46 10 -96 4 -49
10 -100 13 -112 6 -26 -4 -28 -57 -12 -48 14 -296 85 -405 115 -49 14 -112 32
-140 40 -81 25 -148 45 -172 50 -86 18 -28 21 340 21 224 0 409 -3 411 -6z
m-934 -42 c58 -17 137 -39 175 -50 39 -11 84 -24 100 -29 17 -4 86 -24 155
-44 69 -19 152 -43 185 -54 l60 -19 -419 -1 -418 -1 6 87 c10 131 15 154 35
147 9 -4 63 -20 121 -36z m958 -278 c5 -3 13 -46 17 -96 3 -49 7 -99 8 -110 2
-20 -5 -20 -586 -20 l-588 -1 6 88 c4 49 8 96 10 106 2 9 4 22 4 28 1 12 1110
17 1129 5z m-3348 -2129 l0 -137 -407 0 -408 0 0 138 -1 137 408 0 408 0 0
-138z m2141 108 c0 -16 0 -57 0 -90 0 -33 0 -81 0 -108 l-1 -47 -707 1 c-390
1 -710 2 -713 3 -3 0 -5 62 -5 136 l0 135 712 0 713 0 1 -30z m1175 -107 l-1
-138 -92 0 -93 -1 0 138 0 138 93 0 94 0 -1 -137z m-3316 -858 c0 -256 0 -575
0 -710 0 -629 1 -618 -12 -608 -28 21 -318 153 -391 177 -108 36 -224 55 -326
52 l-87 -3 0 779 1 778 407 0 408 0 0 -465z m2140 458 c1 -14 1 -1768 0 -1800
l0 -32 -52 15 c-29 8 -136 57 -238 108 -275 138 -347 162 -514 172 l-96 6 -1
-38 c-1 -22 -1 -45 0 -51 1 -7 -3 -13 -9 -13 -5 0 -10 22 -10 51 l0 51 -87 -5
c-136 -9 -227 -32 -345 -84 -31 -14 -60 -26 -65 -27 -7 -1 -13 1631 -6 1647 3
4 323 7 714 7 390 0 709 -3 709 -7z m1176 -775 l-1 -783 -36 3 c-19 2 -44 5
-55 7 -10 2 -36 4 -56 4 l-38 1 0 775 0 775 93 0 93 0 0 -782z m-2079 -888
c-5 -29 -13 -33 -13 -5 0 14 4 25 8 25 4 0 7 -9 5 -20z"/>
<path d="M14099 9506 c-2 -2 -43 -6 -90 -10 -159 -12 -251 -46 -519 -189 -47
-25 -126 -59 -175 -76 -160 -54 -266 -36 -525 87 -69 33 -150 70 -180 82 -30
12 -64 26 -75 31 -33 14 -167 47 -218 54 -195 24 -341 -11 -650 -156 -359
-169 -432 -169 -779 7 -179 90 -258 124 -323 139 -16 4 -39 9 -50 12 -38 9
-160 10 -200 1 -104 -23 -194 -58 -360 -143 -220 -113 -287 -137 -385 -141
-102 -4 -188 20 -357 99 -207 97 -233 108 -293 129 -124 42 -200 56 -362 62
l-68 2 -1 -83 c-1 -104 -1 -130 0 -145 1 -9 27 -14 89 -15 152 -4 262 -38 522
-161 222 -105 297 -126 445 -126 157 -1 220 18 466 140 115 57 235 113 268
124 143 48 225 30 491 -104 274 -138 342 -160 505 -160 160 -1 225 19 530 164
61 28 151 66 200 83 81 28 102 31 210 31 109 0 129 -3 212 -32 51 -17 159 -63
240 -101 144 -67 263 -116 307 -126 11 -2 32 -7 46 -11 44 -11 193 -13 255 -3
91 15 175 49 382 153 212 107 267 125 397 135 l91 6 -1 30 c-1 17 -3 65 -4
108 -2 51 -8 83 -17 93 -16 15 -17 16 -24 10z"/>
<path d="M17835 8299 c-164 -17 -229 -40 -460 -159 -349 -180 -424 -180 -806
4 -410 197 -636 199 -1029 9 -401 -193 -467 -195 -810 -20 -295 150 -422 184
-576 158 -108 -19 -185 -49 -380 -148 -100 -51 -210 -101 -245 -112 -157 -50
-261 -32 -519 91 -278 132 -394 166 -592 173 -87 3 -98 2 -99 -13 -4 -113 -4
-222 0 -223 4 0 44 -2 91 -3 151 -5 257 -36 470 -138 236 -113 351 -149 480
-151 164 -2 236 19 485 145 227 115 292 139 376 144 93 4 179 -24 372 -123
149 -78 267 -130 308 -138 11 -2 22 -6 27 -8 11 -8 112 -20 172 -22 62 -1 170
17 245 41 27 9 136 56 240 104 325 149 427 169 613 121 99 -26 145 -43 292
-114 250 -119 337 -147 480 -151 150 -5 236 22 520 163 237 117 285 131 471
140 13 1 16 9 13 39 -2 20 -6 73 -8 117 -3 44 -5 81 -6 81 0 3 -66 -1 -125 -7z"/>
<path d="M10544 7169 c-118 -24 -147 -35 -364 -145 -234 -117 -283 -134 -390
-135 -102 0 -182 26 -415 135 -162 77 -151 72 -235 101 -102 34 -196 51 -313
54 l-97 2 -1 -53 c0 -29 -2 -82 -3 -117 -1 -37 3 -65 9 -66 5 -2 55 -6 110 -9
55 -3 111 -7 124 -10 66 -15 171 -56 325 -127 163 -76 293 -127 346 -135 14
-2 40 -7 59 -10 67 -11 171 -5 261 17 72 16 139 45 308 130 260 130 337 153
442 133 87 -16 147 -41 325 -134 185 -96 274 -129 390 -144 153 -20 298 9 488
98 43 20 112 52 155 72 338 158 459 152 877 -46 220 -105 316 -131 465 -130
141 1 239 34 505 169 209 106 282 128 431 130 l40 1 -3 53 c-1 28 -4 83 -5
120 l-3 69 -94 -7 c-147 -10 -290 -51 -411 -118 -87 -49 -270 -136 -314 -151
-160 -54 -272 -34 -549 98 -265 126 -413 168 -577 161 -52 -2 -104 -6 -115 -8
-147 -35 -225 -64 -420 -157 -164 -78 -291 -120 -364 -121 -131 -1 -176 15
-511 188 -36 19 -103 47 -150 63 -77 26 -112 34 -206 44 -16 1 -70 -5 -120
-15z"/>
<path d="M19960 21430 c-21 -18 -161 -115 -775 -541 -44 -31 -258 -179 -475
-330 -217 -151 -466 -324 -552 -384 -87 -60 -158 -113 -158 -117 0 -6 278
-412 328 -478 10 -14 48 -68 83 -120 36 -52 139 -201 229 -330 313 -449 372
-535 377 -547 3 -7 12 -13 20 -13 14 0 227 143 237 159 4 7 -363 548 -436 643
-7 9 -42 60 -78 113 -67 99 -223 322 -237 340 -4 6 -27 37 -49 70 l-42 60 22
16 c76 57 648 450 650 447 1 -1 58 -84 127 -183 68 -99 127 -181 131 -183 5
-2 8 -7 8 -12 0 -5 37 -62 83 -127 46 -65 113 -161 149 -214 36 -53 80 -116
97 -140 18 -24 60 -84 94 -134 34 -49 65 -94 68 -99 7 -8 249 150 249 163 0 3
-38 59 -83 123 -280 400 -672 970 -672 978 0 7 78 64 265 192 50 34 137 95
231 160 l96 67 164 -236 c90 -130 196 -282 234 -338 92 -133 344 -495 406
-583 l16 -22 109 76 c60 41 115 81 122 88 10 10 -15 52 -130 217 -145 208
-250 359 -435 626 -57 82 -131 188 -165 237 -63 90 -147 212 -220 319 -22 31
-45 57 -51 57 -7 0 -23 -9 -37 -20z"/>
<path d="M6098 21275 c-1 -1 -39 -5 -83 -9 -111 -8 -138 -14 -237 -46 -298
-100 -539 -315 -693 -621 -142 -282 -160 -589 -51 -880 126 -336 479 -674 853
-814 160 -61 273 -80 463 -80 150 1 199 8 330 52 581 194 933 872 749 1443
-84 261 -290 517 -559 697 -211 141 -447 231 -650 248 -41 4 -85 8 -97 10 -12
2 -23 2 -25 0z m102 -340 c343 -61 740 -346 885 -635 26 -53 56 -127 60 -150
1 -8 15 -73 20 -100 9 -42 6 -179 -5 -240 -15 -81 -44 -162 -86 -239 -228
-414 -691 -548 -1124 -323 -298 154 -545 396 -634 621 -48 123 -56 320 -17
464 82 308 334 549 628 601 76 13 203 14 273 1z"/>
<path d="M4128 18683 c-36 -76 -63 -143 -61 -148 2 -6 18 -17 36 -24 17 -8 97
-46 177 -84 80 -38 170 -81 200 -94 30 -14 107 -50 170 -81 63 -30 189 -89
280 -132 91 -43 221 -104 290 -137 69 -33 211 -99 315 -148 105 -49 196 -94
203 -100 10 -9 -7 -15 -80 -25 -51 -8 -95 -14 -98 -15 -3 -1 -30 -5 -60 -9
-30 -4 -66 -9 -80 -11 -53 -9 -227 -35 -265 -40 -22 -3 -49 -7 -60 -10 -11 -2
-42 -7 -70 -10 -27 -3 -75 -10 -105 -15 -30 -5 -73 -12 -95 -15 -22 -3 -161
-24 -310 -46 -148 -22 -286 -42 -305 -45 -19 -3 -89 -14 -155 -24 -66 -11
-142 -22 -170 -26 -27 -3 -57 -8 -66 -9 -9 -2 -40 -6 -69 -10 -29 -4 -62 -9
-74 -11 -12 -2 -43 -7 -71 -10 -69 -9 -94 -20 -104 -46 -9 -23 -106 -228 -123
-261 -8 -15 6 -25 108 -73 239 -112 292 -138 422 -200 73 -35 135 -64 136 -64
2 0 79 -36 172 -81 93 -44 198 -95 234 -111 145 -68 496 -234 715 -338 61 -29
137 -65 170 -80 33 -15 102 -48 153 -73 l94 -44 19 31 c10 17 19 34 19 38 0 4
20 48 44 98 68 137 69 125 -16 164 -40 18 -144 68 -232 110 -87 42 -160 76
-161 76 -2 0 -70 32 -152 71 -81 39 -218 104 -303 144 -85 40 -209 98 -275
130 -66 31 -147 69 -180 85 -247 116 -317 151 -314 154 2 3 24 7 49 10 25 4
56 9 70 11 14 3 41 7 60 9 48 7 108 15 150 22 19 3 49 8 65 10 17 2 46 6 65 9
91 14 159 24 200 30 25 3 57 8 73 11 15 2 39 6 55 8 15 3 92 14 172 26 80 12
231 34 335 50 105 16 208 31 230 34 22 3 51 8 65 10 14 2 46 7 71 10 25 4 57
9 70 11 36 6 264 40 334 49 43 6 129 20 138 22 4 1 13 2 20 3 8 0 26 29 42 64
16 34 48 102 72 152 23 49 39 93 35 97 -4 4 -113 58 -242 119 -129 61 -278
131 -330 156 -52 25 -131 62 -175 83 -415 195 -783 369 -890 420 -71 34 -164
78 -205 97 -41 20 -135 64 -209 99 -74 35 -139 64 -145 64 -7 0 -42 -62 -78
-137z"/>
<path d="M20206 18373 c-1 -1 -219 -4 -484 -6 -265 -2 -484 -6 -487 -9 -4 -3
17 -66 45 -140 72 -184 74 -188 85 -189 20 -2 570 10 702 16 66 2 73 1 79 -19
4 -11 15 -39 24 -61 10 -22 73 -182 140 -355 67 -173 128 -328 135 -345 20
-44 55 -139 55 -147 0 -8 -54 -60 -235 -224 -66 -60 -132 -120 -146 -134 -15
-14 -65 -60 -112 -103 l-86 -78 14 -32 c8 -18 39 -95 68 -172 30 -76 59 -141
63 -142 10 -3 35 20 314 287 96 92 191 183 211 201 20 19 121 115 225 214 246
236 391 374 424 405 27 25 327 312 514 491 56 53 129 123 164 156 l63 59 -65
164 -64 165 -822 0 c-452 0 -823 -1 -824 -2z m1404 -271 c0 -4 -33 -35 -72
-67 -68 -55 -216 -183 -228 -196 -3 -3 -48 -43 -100 -89 -52 -47 -100 -89
-106 -95 -6 -5 -51 -46 -99 -90 -49 -44 -93 -84 -99 -90 -66 -60 -175 -155
-179 -155 -3 0 -8 12 -11 26 -4 14 -15 45 -26 68 -10 22 -41 100 -68 171 -28
72 -80 206 -116 298 -36 92 -66 169 -66 171 0 2 100 4 223 5 465 5 735 14 796
26 10 2 44 6 76 9 33 4 61 9 64 11 7 7 11 6 11 -3z"/>
<path d="M6267 6674 c-1 -1 -33 -4 -72 -8 -91 -8 -115 -12 -205 -38 -477 -136
-899 -552 -1014 -1001 -75 -290 -8 -620 182 -911 26 -39 49 -73 52 -76 3 -3
27 -32 55 -65 166 -200 372 -343 625 -438 88 -33 191 -63 250 -73 14 -3 41 -9
60 -14 58 -16 77 -12 116 26 21 19 59 54 84 77 43 39 204 187 275 252 18 17
76 71 130 120 156 142 143 121 103 164 -19 20 -57 60 -84 90 -27 29 -62 68
-79 85 -16 18 -75 81 -130 141 -55 60 -109 119 -120 131 -11 11 -60 65 -110
119 -49 55 -103 112 -118 128 l-29 29 -26 -24 c-15 -13 -52 -47 -82 -75 -30
-28 -66 -61 -78 -72 -13 -11 -22 -24 -20 -30 2 -7 113 -130 208 -231 19 -20
207 -226 238 -260 12 -14 22 -28 22 -31 0 -3 -44 -46 -97 -95 -53 -49 -124
-115 -157 -146 -36 -34 -70 -58 -83 -58 -52 0 -200 48 -313 103 -269 130 -459
342 -551 618 -67 199 -42 429 67 618 118 204 338 412 551 520 201 102 372 132
549 96 312 -64 627 -378 681 -679 24 -138 5 -242 -73 -399 l-44 -87 38 -23
c20 -13 65 -41 100 -63 35 -21 76 -47 92 -56 l30 -18 24 38 c73 116 129 262
147 381 39 274 -101 604 -367 863 -204 198 -397 306 -633 353 -61 13 -187 25
-194 19z"/>
<path d="M19040 6524 c-161 -33 -295 -138 -423 -331 -55 -82 -247 -417 -247
-429 0 -3 -10 -21 -23 -42 -13 -20 -45 -77 -72 -127 -26 -49 -82 -151 -123
-225 -130 -234 -173 -318 -165 -323 17 -10 81 -45 148 -82 61 -32 382 -209
515 -283 25 -13 70 -38 100 -55 30 -16 165 -90 300 -164 135 -75 268 -148 295
-163 28 -15 187 -103 355 -195 168 -93 328 -181 357 -197 28 -15 55 -28 60
-28 9 0 163 272 163 287 0 4 -71 46 -157 93 -86 47 -186 101 -222 121 -36 20
-97 54 -136 74 -38 21 -99 55 -135 75 -36 20 -96 54 -135 75 -38 21 -89 49
-113 62 l-43 25 22 37 c12 20 37 65 57 101 85 157 137 248 162 285 110 158
252 206 705 240 44 3 109 8 145 10 36 3 101 7 145 10 226 14 389 25 390 28 21
35 195 359 195 363 0 5 -75 1 -255 -11 -112 -8 -220 -15 -295 -20 -278 -17
-321 -21 -435 -40 -135 -24 -252 -61 -324 -104 -36 -22 -68 -38 -70 -36 -2 3
4 22 13 45 9 22 13 40 11 40 -3 0 -1 8 4 18 9 17 16 53 30 147 31 223 -58 445
-234 581 -82 64 -206 120 -306 140 -63 12 -194 11 -259 -2z m271 -367 c148
-65 238 -211 226 -366 -11 -142 -31 -188 -289 -656 -88 -159 -162 -292 -165
-295 -5 -5 -39 12 -268 139 -247 136 -242 133 -337 186 l-88 49 24 40 c20 35
130 234 226 411 147 268 183 327 241 390 51 55 127 105 188 122 67 19 174 10
242 -20z"/>
<path d="M8064 4898 c-65 -83 -164 -209 -219 -279 -56 -70 -114 -144 -130
-164 -17 -21 -43 -55 -60 -75 -16 -21 -49 -62 -72 -91 -22 -30 -235 -299 -472
-599 -237 -300 -431 -549 -431 -555 0 -5 57 -54 126 -108 122 -96 125 -98 142
-79 9 11 56 68 103 128 47 60 171 217 275 349 104 132 207 263 229 292 39 51
58 63 69 44 4 -5 76 -64 162 -132 188 -147 245 -201 277 -266 46 -90 60 -161
60 -318 0 -72 -11 -278 -18 -318 -2 -12 -6 -54 -9 -94 -3 -39 -8 -86 -10 -105
-6 -38 -13 -113 -21 -210 -3 -37 -8 -76 -10 -86 -2 -11 -6 -56 -10 -99 l-6
-79 158 -126 c87 -69 161 -123 165 -119 4 3 9 38 13 76 3 39 7 84 10 100 2 17
6 66 10 110 4 44 9 88 10 97 2 9 7 57 10 105 4 48 9 90 10 93 2 3 6 48 10 100
4 52 9 98 12 103 7 11 6 284 -2 352 -7 70 -27 145 -55 209 -11 26 -17 46 -15
46 2 0 41 -18 87 -39 272 -130 514 -119 716 30 83 62 156 152 206 254 51 103
67 166 72 281 10 243 -110 416 -500 719 -21 17 -65 50 -96 75 -31 25 -73 57
-91 72 -36 28 -297 234 -414 327 -82 66 -146 114 -161 123 -6 4 -61 -57 -130
-144z m319 -358 c56 -45 109 -86 117 -93 8 -7 109 -86 223 -176 231 -182 313
-264 357 -357 76 -159 30 -344 -114 -453 -127 -96 -270 -104 -427 -26 -61 31
-189 114 -214 139 -7 6 -27 22 -45 36 -18 14 -103 81 -189 149 -86 68 -171
135 -190 150 -65 50 -107 86 -110 94 -3 10 474 617 484 617 3 0 52 -36 108
-80z"/>
<path d="M16990 4487 c-217 -155 -406 -290 -420 -301 -31 -22 -223 -159 -437
-312 -89 -63 -165 -119 -168 -124 -4 -7 859 -1228 1199 -1695 8 -11 56 -78
107 -150 50 -71 95 -134 100 -139 4 -4 217 142 473 325 257 184 480 343 496
354 189 131 519 372 517 378 -4 14 -162 236 -168 237 -4 0 -168 -116 -365
-257 -198 -141 -384 -274 -414 -295 -95 -67 -141 -100 -288 -206 -78 -56 -144
-102 -146 -102 -9 0 -461 641 -461 654 0 12 994 733 1055 766 11 6 20 15 20
20 0 16 -162 235 -173 234 -7 -1 -99 -64 -205 -140 -107 -76 -203 -146 -215
-154 -12 -8 -165 -117 -340 -242 -175 -126 -321 -228 -326 -228 -11 0 -412
558 -418 580 -2 10 55 56 169 137 303 214 973 694 980 701 7 7 -158 242 -170
242 -4 0 -185 -127 -402 -283z"/>
<path d="M10427 3493 c-14 -26 -76 -158 -140 -293 -63 -135 -140 -297 -170
-361 -31 -64 -71 -150 -90 -190 -62 -133 -114 -242 -160 -339 -56 -118 -117
-247 -217 -461 -43 -92 -83 -175 -89 -185 -5 -11 -22 -46 -37 -79 -15 -33 -46
-100 -70 -149 -24 -49 -44 -93 -44 -97 0 -5 19 -19 43 -31 59 -31 249 -118
258 -118 3 0 16 21 27 48 11 26 50 108 85 182 35 74 76 160 90 190 14 30 50
107 80 170 57 119 71 149 269 570 182 386 202 427 251 530 47 100 85 181 161
345 26 55 53 112 61 127 8 14 15 32 15 40 0 8 -55 40 -129 75 -179 85 -166 83
-194 26z"/>
<path d="M14968 3354 c-117 -18 -419 -97 -928 -244 -36 -11 -99 -29 -140 -40
-119 -34 -140 -41 -140 -47 0 -3 25 -94 56 -202 31 -108 57 -203 59 -211 5
-19 69 -245 95 -330 10 -36 26 -90 34 -120 8 -30 49 -176 91 -325 42 -148 92
-324 110 -390 63 -224 186 -660 197 -695 22 -72 28 -81 46 -77 19 6 165 48
250 73 28 9 52 21 52 27 0 7 -7 35 -16 62 -8 28 -23 82 -34 120 -22 83 -75
271 -94 335 -41 137 -118 421 -115 424 3 2 463 133 494 140 66 15 260 79 315
103 263 116 386 235 457 442 36 104 42 298 12 411 -30 119 -88 247 -134 296
-5 7 -25 30 -42 51 -42 51 -126 117 -193 149 -115 55 -267 72 -432 48z m245
-340 c124 -63 201 -185 225 -354 24 -169 -58 -311 -228 -399 -76 -39 -143 -63
-300 -107 -47 -13 -98 -28 -115 -33 -16 -6 -55 -17 -85 -25 -99 -27 -265 -73
-286 -80 -19 -6 -23 2 -49 91 -15 54 -33 118 -41 143 -13 43 -102 361 -142
506 l-20 71 81 22 c45 12 111 31 147 42 266 79 531 148 600 156 30 3 56 7 58
8 9 7 113 -20 155 -41z"/>
<path d="M11350 3136 c-6 -18 -14 -80 -25 -211 -6 -64 -17 -171 -20 -195 -2
-14 -7 -56 -10 -95 -3 -38 -8 -81 -10 -95 -3 -14 -7 -61 -10 -105 -4 -44 -8
-87 -10 -95 -2 -8 -6 -49 -10 -90 -3 -41 -8 -86 -10 -100 -3 -14 -7 -59 -10
-100 -3 -41 -8 -86 -10 -100 -2 -14 -7 -59 -10 -100 -4 -41 -9 -82 -10 -91 -2
-8 -6 -51 -10 -95 -4 -43 -8 -92 -10 -109 -10 -100 -18 -172 -20 -186 -2 -8
-6 -55 -10 -105 -3 -49 -8 -96 -10 -104 -2 -8 -7 -49 -11 -90 -3 -41 -8 -86
-9 -100 -2 -14 -6 -54 -9 -90 -3 -36 -9 -86 -12 -112 -3 -25 -1 -48 3 -51 5
-3 40 -8 78 -12 39 -4 81 -8 95 -10 85 -12 160 -16 161 -9 0 5 2 18 3 29 2 11
6 54 10 95 3 41 8 84 10 96 2 11 7 56 11 100 3 43 8 90 10 104 2 14 6 57 10
95 3 39 8 88 10 110 3 22 7 59 10 82 2 23 7 73 11 111 3 39 7 79 9 89 2 10 4
29 4 42 1 23 3 23 64 17 34 -3 76 -8 92 -10 17 -2 62 -7 100 -10 39 -4 88 -9
110 -11 22 -3 63 -7 90 -10 28 -3 82 -8 120 -12 90 -10 396 -10 455 0 70 12
169 46 230 78 66 36 119 83 185 164 152 187 205 490 127 722 -97 288 -298 423
-707 478 -64 8 -110 13 -275 30 -85 9 -171 18 -190 20 -19 2 -60 6 -90 9 -108
11 -175 17 -205 21 -16 2 -61 6 -100 10 -38 4 -96 10 -128 14 -54 7 -59 6 -67
-13z m425 -336 c39 -5 106 -12 150 -15 44 -4 87 -8 95 -10 8 -2 49 -6 90 -9
41 -4 91 -9 110 -11 19 -2 60 -7 90 -10 30 -3 66 -8 80 -10 14 -3 41 -7 60
-10 180 -29 285 -119 328 -280 21 -79 20 -158 -3 -246 -42 -166 -151 -263
-326 -290 -68 -10 -303 -7 -340 5 -8 2 -45 7 -84 10 -38 3 -88 8 -110 10 -86
10 -143 16 -210 22 -38 4 -77 8 -85 9 -8 2 -23 4 -32 4 -11 1 -16 8 -13 20 2
10 6 54 10 97 4 43 8 90 10 103 2 13 7 58 11 100 3 42 8 83 9 92 2 9 6 52 10
95 4 43 9 86 10 94 1 8 6 53 10 100 5 47 9 94 11 105 1 11 3 23 3 28 1 9 29 9
116 -3z"/>
</g>
</svg>
